<svg xmlns="http://www.w3.org/2000/svg" width="63" height="72" viewBox="0 0 63 72">
  <g fill="none" fill-rule="evenodd">
    <path fill="#0073B9" fill-rule="nonzero" d="M33.0713513,0.438462315 L61.2602433,16.8020987 C62.2673354,17.3867151 62.8877297,18.4671308 62.8877297,19.6363636 L62.8877297,52.3636364 C62.8877297,53.5328692 62.2673354,54.6132849 61.2602433,55.1979013 L33.0713513,71.5615377 C32.0642592,72.1461541 30.8234705,72.1461541 29.8163784,71.5615377 L1.62748644,55.1979013 C0.620394325,54.6132849 0,53.5328692 0,52.3636364 L0,19.6363636 C0,18.4671308 0.620394325,17.3867151 1.62748644,16.8020987 L29.8163784,0.438462315 C30.8234705,-0.146154105 32.0642592,-0.146154105 33.0713513,0.438462315 Z"/>
    <path fill="#0082C9" d="M43.5739175 35.9869091L14.7627835 9.24872727 1.73412371 16.8283636C.753402062 17.3978182.142886598 18.4581818.142886598 19.6036364L.142886598 52.3963636C.142886598 53.5418182.746907216 54.5956364 1.73412371 55.1716364L29.9152577 71.568C30.5712371 71.9476364 31.331134 72.072 32.0585567 71.9410909L33.2536082 68.2101818 43.5739175 35.9869091zM49.8349485 41.7927273L62.6103093 53.6465455C62.7726804 53.2538182 62.8636082 52.8283636 62.8636082 52.3963636L62.8636082 19.6036364C62.8636082 18.4581818 62.2595876 17.4043636 61.2723711 16.8283636L51.5365979 11.16 43.5739175 35.9869091 49.8349485 41.7927273z"/>
    <path fill="#0089D1" d="M29.9152577,0.432 L14.7627835,9.24872727 L43.5739175,35.9869091 L51.5365979,11.1665455 L33.0912371,0.432 C32.1105155,-0.137454545 30.8959794,-0.137454545 29.9152577,0.432 Z"/>
    <path fill="#0073B9" d="M43.5804124,35.9869091 L33.2536082,68.2036364 L32.0585567,71.9345455 C32.4157732,71.8690909 32.7664948,71.7512727 33.0912371,71.5614545 L61.2723711,55.1650909 C61.8763918,54.8116364 62.3375258,54.2749091 62.6038144,53.6465455 L49.8349485,41.7927273 L43.5804124,35.9869091 Z"/>
    <polygon fill="#FFF" fill-rule="nonzero" points="36.923 24.816 36.923 48 29.621 48 29.621 29.856 25.769 29.856 25.769 24.816"/>
  </g>
</svg>
