<svg xmlns="http://www.w3.org/2000/svg" width="63" height="72" viewBox="0 0 63 72">
  <g fill="none" fill-rule="evenodd">
    <path fill="#35BD59" d="M62.7402062,19.6340166 L62.7402062,52.3607108 C62.7402062,53.5323264 62.1231959,54.6123074 61.1164948,55.1948425 L39.4107216,67.8273465 L32.9938144,71.5581896 C31.9871134,72.1472701 30.7465979,72.1472701 29.7463918,71.5581896 L1.62371134,55.1948425 C0.617010309,54.6123074 0,53.5323264 0,52.3607108 L0,19.6340166 C0,18.4689463 0.617010309,17.3889653 1.62371134,16.7998849 L18.9259794,6.73315371 L29.7463918,0.436537738 C30.1945361,0.168178845 30.6946392,0.0307267296 31.2012371,0.0045453742 C31.8182474,-0.02818132 32.4417526,0.115816135 32.9938144,0.436537738 L61.1164948,16.7998849 C62.1231959,17.3889653 62.7402062,18.4689463 62.7402062,19.6340166 Z"/>
    <path fill="#8EC738" d="M62.7402062,34.4108108 L39.4107216,67.8273465 L32.9938144,71.5246438 C31.9871134,72.1084276 30.7465979,72.1084276 29.7463918,71.5246438 C11.6690722,61.0229745 2.29484536,55.5797074 1.62371134,55.1948425 C0.617010309,54.6175452 0,53.052973 0,51.8918919 L0,19.4594595 C0,18.3048649 0.617010309,17.2345946 1.62371134,16.6508108 L18.9259794,6.67459459 L29.7463918,0.434594595 C30.1945361,0.168648649 30.6946392,0.0324324324 31.2012371,0.00648648649 L60.0513402,30.9340541 L62.7402062,33.8140541 L62.7402062,34.4108108 Z" opacity=".5"/>
    <path fill="#8EC738" d="M62.7402062,34.4108108 L62.7402062,52.5333248 C62.7402062,53.6944058 62.1231959,54.6175452 61.1164948,55.1948425 C60.4453608,55.5797074 53.2101031,59.801724 39.4107216,67.8608923 L32.9938144,71.5581896 C31.9871134,72.1419734 30.7465979,72.1419734 29.7463918,71.5581896 L1.62371134,55.1948425 C0.617010309,54.6175452 0,53.6944058 0,52.5333248 L0,19.4594595 C0,18.3048649 0.617010309,17.2345946 1.62371134,16.6508108 L18.9259794,6.67459459 L60.0513402,30.9340541 L62.7402062,32.5167568 L62.7402062,33.8140541 L62.7402062,34.4108108 Z" opacity=".5"/>
    <path fill="#FFF" fill-rule="nonzero" d="M42.3655063,38.088 L42.3655063,43.8 L39.5855316,43.8 L39.5855316,48 L32.3174051,48 L32.3174051,43.8 L21.431962,43.8 L21.431962,38.256 L30.9776582,24.816 L39.5855316,24.816 L39.5855316,38.088 L42.3655063,38.088 Z M28.1306962,38.256 L32.4848734,38.256 L32.4848734,32.04 L28.1306962,38.256 Z"/>
  </g>
</svg>
