<svg xmlns="http://www.w3.org/2000/svg" width="63" height="72" viewBox="0 0 63 72">
  <g fill="none" fill-rule="evenodd">
    <path fill="#FAAB19" d="M62.7402062,19.634281 L62.7402062,52.36081 C62.7402062,53.0480671 62.5323711,53.6960524 62.1426804,54.2393127 C61.8828866,54.6254858 61.5321649,54.9527511 61.1164948,55.1949274 L50.6468041,61.2886071 L32.9938144,71.5581919 C31.9871134,72.1472694 30.7530928,72.1472694 29.7463918,71.5581919 L1.62371134,55.1949274 C0.617010309,54.6123952 0,53.5324197 0,52.36081 L0,19.634281 C0,19.5557374 0,19.4771937 0.00649484536,19.39865 C0.0844329897,18.3252199 0.688453608,17.3499693 1.62371134,16.8001636 L29.7463918,0.436899161 C30.7530928,-0.145633054 31.9871134,-0.145633054 32.9938144,0.436899161 L61.1164948,16.8001636 C62.1231959,17.3892412 62.7402062,18.4692166 62.7402062,19.634281 Z"/>
    <path fill="#E3900B" d="M62.7402062,19.4594595 L62.7402062,51.8918919 C62.7402062,52.572973 62.5323711,53.2151351 62.1426804,53.7535135 C61.8828866,54.1362162 61.5321649,54.4605405 61.1164948,54.7005405 L50.6468041,60.7394595 L0,51.3081081 L0,19.4594595 C0,19.3816216 0,19.3037838 0.00649484536,19.2259459 C0.0844329897,18.1621622 0.688453608,17.1956757 1.62371134,16.6508108 L29.7463918,0.434594595 C30.7530928,-0.142702703 31.9871134,-0.142702703 32.9938144,0.434594595 L61.1164948,16.6508108 C62.1231959,17.2345946 62.7402062,18.3048649 62.7402062,19.4594595 Z" opacity=".6"/>
    <path fill="#FAAB19" d="M62.1426804,53.7535135 C61.8828866,54.1362162 61.5321649,54.4605405 61.1164948,54.7005405 L50.6468041,60.7394595 L32.9938144,70.9167568 C31.9871134,71.5005405 30.7530928,71.5005405 29.7463918,70.9167568 L1.62371134,54.7005405 C0.617010309,54.1232432 0,53.052973 0,51.8918919 L0,19.4594595 C0,19.3816216 0,19.3037838 0.00649484536,19.2259459 L62.1426804,53.7535135 Z" opacity=".5"/>
    <path fill="#FFF" fill-rule="nonzero" d="M41.9300886,39.8016 C41.9300886,44.5056 38.5137342,48.3696 32.5518608,48.3696 C26.623481,48.3696 22.2693038,44.0016 22.2693038,36.6096 C22.2693038,29.2176 26.1210759,24.48 33.3222152,24.48 C36.8390506,24.48 39.6860127,25.6896 41.0257595,26.6976 L38.5137342,31.5696 C38.5137342,31.5696 36.1691772,30.1584 33.6571519,30.1584 C31.1451266,30.1584 29.470443,31.5696 29.470443,34.4256 C29.8053797,34.0896 31.3125949,32.7456 34.8294304,32.7456 C38.3462658,32.7456 41.9300886,35.0976 41.9300886,39.8016 Z M34.8294304,40.2384 C34.8294304,38.7936 33.7241392,37.6176 32.2169241,37.6176 C30.7097089,37.6176 29.6379114,38.7936 29.6379114,40.2384 C29.6379114,41.6496 30.7097089,42.8256 32.2169241,42.8256 C33.7241392,42.8256 34.8294304,41.6496 34.8294304,40.2384 Z"/>
  </g>
</svg>
