<svg xmlns="http://www.w3.org/2000/svg" width="63" height="72" viewBox="0 0 63 72">
  <g fill="none" fill-rule="evenodd">
    <path fill="#E66F20" d="M62.746701,19.4639189 L62.746701,52.5508187 C62.746701,53.7054133 62.1231959,54.7756836 61.1229897,55.3594674 L52.3419588,60.4189268 L32.9938144,71.5756836 C31.9936082,72.1529809 30.7530928,72.1529809 29.7463918,71.5756836 L1.62371134,55.3594674 C0.623505155,54.7756836 0,53.7054133 0,52.5508187 L0,19.4639189 C0,18.3028378 0.623505155,17.2325676 1.62371134,16.6552703 L29.7463918,0.439054054 C30.1165979,0.225 30.5127835,0.0887837838 30.9219588,0.0304054054 C31.6298969,-0.0668918919 32.3638144,0.0693243243 32.9938144,0.439054054 L60.48,16.2855405 L61.1229897,16.6552703 C62.1231959,17.2325676 62.746701,18.3028378 62.746701,19.4639189 Z"/>
    <path fill="#F27F2D" d="M62.746701,19.4659459 L62.746701,52.5508187 C62.746701,53.7054133 62.1231959,54.7756836 61.1229897,55.3594674 L52.3419588,60.4189268 L60.48,16.2875676 L61.1229897,16.6572973 C62.1231959,17.2345946 62.746701,18.3048649 62.746701,19.4659459 Z"/>
    <path fill="#D76419" d="M30.9219588,0.0324324324 L0,50.0043243 L0,19.4659459 C0,18.3048649 0.623505155,17.2345946 1.62371134,16.6572973 L29.7463918,0.441081081 C30.1165979,0.227027027 30.5127835,0.0908108108 30.9219588,0.0324324324 Z"/>
    <polygon fill="#FFF" fill-rule="nonzero" points="40.021 24.816 42.031 29.352 32.652 48 24.614 48 33.992 30.528 22.772 30.528 22.772 24.816"/>
  </g>
</svg>
