<svg xmlns="http://www.w3.org/2000/svg" width="63" height="72" viewBox="0 0 63 72">
  <g fill="none" fill-rule="evenodd">
    <path fill="#00B6C7" d="M62.746701,19.6029014 L62.746701,52.2773669 C62.746701,52.5845069 62.7012371,52.885112 62.623299,53.1726473 C62.3959794,53.9764391 61.8634021,54.6756727 61.1229897,55.1069757 L33.0003093,71.4442084 C31.9936082,72.0323488 30.7530928,72.0323488 29.7528866,71.4442084 L1.62371134,55.1069757 C0.623505155,54.5253702 0,53.4471128 0,52.2773669 L0,19.6029014 C0,18.4854347 0.578041237,17.4463867 1.50680412,16.8517114 C1.5457732,16.819037 1.58474227,16.7994323 1.62371134,16.7732927 L29.7528866,0.436059963 C30.3763918,0.0766408419 31.0908247,-0.0605919132 31.792268,0.0243616971 C32.2079381,0.0766408419 32.6236082,0.213873597 33.0003093,0.436059963 L61.1229897,16.7732927 C62.1231959,17.3614331 62.746701,18.4396905 62.746701,19.6029014 Z"/>
    <path fill="#00D6E6" d="M62.746701,33.4651876 L62.746701,52.2791448 C62.746701,52.5862848 62.7012371,52.8868899 62.623299,53.1744252 C62.3959794,53.978217 61.8634021,54.6774506 61.1229897,55.1087535 L33.0003093,71.4459863 C31.9936082,72.0341267 30.7530928,72.0341267 29.7528866,71.4459863 L1.62371134,55.1087535 C0.623505155,54.527148 0,53.4488907 0,52.2791448 L0,19.6046793 C0,18.4872126 0.578041237,17.4481646 1.50680412,16.8534893 C1.5457732,16.8208148 1.58474227,16.8012102 1.62371134,16.7750706 L29.7528866,0.437837838 C30.3763918,0.0784187172 31.0908247,-0.0588140379 31.792268,0.0261395724 L62.746701,33.4651876 Z" opacity=".5"/>
    <path fill="#00D6E6" d="M62.623299,53.1744252 C62.3959794,53.978217 61.8634021,54.6774506 61.1229897,55.1087535 L33.0003093,71.4459863 C31.9936082,72.0341267 30.7530928,72.0341267 29.7528866,71.4459863 L1.62371134,55.1087535 C0.623505155,54.527148 0,53.4488907 0,52.2791448 L0,19.6046793 C0,18.4872126 0.578041237,17.4481646 1.50680412,16.8534893 L62.623299,53.1744252 Z" opacity=".5"/>
    <path fill="#FFF" fill-rule="nonzero" d="M41.6956329,42.6035821 L41.6956329,48.358209 L23.4415823,48.358209 L22.6042405,43.6191045 L30.1403165,37.1874627 C32.7528228,34.9533134 33.3222152,33.9716418 33.3222152,32.6176119 C33.3222152,31.2635821 32.3174051,30.5865672 30.6427215,30.5865672 C28.968038,30.5865672 26.7909494,31.4328358 25.1162658,33.1253731 L22.2693038,27.8785075 C22.2693038,27.8785075 25.6186709,24.6626866 31.4800633,24.6626866 C37.3414557,24.6626866 40.5233544,27.54 40.5233544,31.6020896 C40.5233544,35.6641791 37.9443418,37.6613731 35.6667722,39.5570149 L31.9824684,42.6035821 L41.6956329,42.6035821 Z"/>
  </g>
</svg>
