<svg xmlns="http://www.w3.org/2000/svg" width="63" height="72" viewBox="0 0 63 72">
  <g fill="none" fill-rule="evenodd">
    <path fill="#E3B409" d="M32.9938144,0.436909091 L61.1164948,16.8005455 C62.1231959,17.3830909 62.7402062,18.4630909 62.7402062,19.6347273 L62.7402062,52.362 C62.7402062,53.5336364 62.1231959,54.6136364 61.1164948,55.1961818 L32.9938144,71.5598182 C31.9871134,72.1423636 30.7530928,72.1423636 29.7463918,71.5598182 L1.62371134,55.1961818 C0.617010309,54.6136364 0,53.5336364 0,52.362 L0,19.6347273 C0,18.4630909 0.617010309,17.3830909 1.62371134,16.8005455 L29.7463918,0.436909091 C30.7530928,-0.145636364 31.9871134,-0.145636364 32.9938144,0.436909091 Z"/>
    <path fill="#E3B409" d="M29.7074227,0.464727273 L1.62371134,16.8021818 C0.883298969,17.2341818 0.357216495,17.9345455 0.123402062,18.7396364 L35.3579381,6.17236364 L29.7074227,0.464727273 Z"/>
    <path fill="#EFC20E" d="M1.0658141e-13,50.5701818 L44.9443299,64.6101818 L61.1164948,55.1978182 C62.1231959,54.6152727 62.7402062,53.5352727 62.7402062,52.3636364 L62.7402062,33.8465455 L35.3579381,6.17236364 L0.123402062,18.7396364 C0.0454639175,19.0276364 1.0658141e-13,19.3287273 1.0658141e-13,19.6363636 L1.0658141e-13,50.5701818 Z"/>
    <path fill="#F1C628" d="M39.9952577,4.51636364 L32.9938144,0.438545455 C31.9871134,-0.144 30.7530928,-0.144 29.7463918,0.438545455 L29.7074227,0.464727273 L35.3579381,6.17236364 L39.9952577,4.51636364 Z"/>
    <path fill="#FCD213" d="M61.1164948,16.8021818 L39.9952577,4.51636364 L35.3514433,6.17236364 L62.7402062,33.8465455 L62.7402062,19.6363636 C62.7402062,18.4647273 62.1231959,17.3847273 61.1164948,16.8021818 Z"/>
    <path fill="#F7CD2A" d="M61.1164948 16.8021818L39.9952577 4.51636364 35.3514433 6.17236364 62.7402062 33.8465455 62.7402062 19.6363636C62.7402062 18.4647273 62.1231959 17.3847273 61.1164948 16.8021818zM4.61852778e-14 52.3636364C4.61852778e-14 53.5352727.617010309 54.6152727 1.62371134 55.1978182L29.7463918 71.5614545C30.7530928 72.144 31.9871134 72.144 32.9938144 71.5614545L44.9443299 64.6101818 4.61852778e-14 50.5701818 4.61852778e-14 52.3636364z"/>
    <path fill="#FFF" fill-rule="nonzero" d="M41.5951519,39.936 C41.5951519,45.648 36.5041139,48.3696 31.6475316,48.3696 C26.7909494,48.3696 23.6090506,46.488 22.2693038,44.64 L25.4512025,40.104 C26.9584177,41.952 29.6379114,42.624 30.9776582,42.624 C32.3174051,42.624 34.3270253,41.952 34.3270253,39.936 C34.3270253,37.92 32.4848734,37.248 30.9776582,37.248 C29.470443,37.248 27.7957595,37.752 26.623481,38.424 L23.6090506,36.576 L25.1162658,24.816 L40.5233544,24.816 L40.5233544,30.528 L30.8101899,30.528 L30.4752532,32.712 C30.9776582,32.544 31.6475316,32.3088 33.3222152,32.3088 C36.6715823,32.3088 41.5951519,34.224 41.5951519,39.936 Z"/>
  </g>
</svg>
