<svg xmlns="http://www.w3.org/2000/svg" width="63" height="72" viewBox="0 0 63 72">
  <g fill="none" fill-rule="evenodd">
    <path fill="#16A698" d="M62.746701,19.6347273 L62.746701,52.362 C62.746701,53.5336364 62.1231959,54.6136364 61.1229897,55.1961818 L32.9938144,71.5598182 C31.9936082,72.1423636 30.7530928,72.1423636 29.7463918,71.5598182 L11.6907216,61.0543636 L1.62371134,55.1961818 C0.623505155,54.6136364 0,53.5336364 0,52.362 L0,19.6347273 C0,18.8165455 0.305257732,18.0376364 0.837835052,17.4485455 C1.05865979,17.1932727 1.32494845,16.9707273 1.62371134,16.8005455 L29.7463918,0.436909091 C30.7530928,-0.145636364 31.9936082,-0.145636364 32.9938144,0.436909091 L61.1229897,16.8005455 C62.1231959,17.3830909 62.746701,18.4630909 62.746701,19.6347273 Z"/>
    <path fill="#16A597" d="M62.746701,19.6363636 L62.746701,52.3636364 C62.746701,53.5352727 62.1296907,54.6152727 61.1229897,55.1978182 L33.0003093,71.5614545 C31.9936082,72.144 30.7530928,72.144 29.7528866,71.5614545 L1.63020619,55.1978182 C0.623505155,54.6152727 0.00649484536,53.5352727 0.00649484536,52.3636364 L0.00649484536,19.6363636 C0.00649484536,18.4647273 0.623505155,17.3847273 1.63020619,16.8021818 L29.7528866,0.438545455 C30.7530928,-0.144 31.9936082,-0.144 33.0003093,0.438545455 L61.1229897,16.8021818 C62.1296907,17.3847273 62.746701,18.4647273 62.746701,19.6363636 Z"/>
    <path fill="#1CC8B4" d="M62.746701,19.6363636 L62.746701,52.3636364 C62.746701,53.5352727 62.1231959,54.6152727 61.1229897,55.1978182 L32.9938144,71.5614545 C31.9936082,72.144 30.7530928,72.144 29.7463918,71.5614545 L11.6907216,61.056 L0.837835052,17.4501818 C1.05865979,17.1949091 1.32494845,16.9723636 1.62371134,16.8021818 L29.0514433,0.844363636 L29.7463918,0.438545455 C30.7530928,-0.144 31.9936082,-0.144 32.9938144,0.438545455 L61.1229897,16.8021818 C62.1231959,17.3847273 62.746701,18.4647273 62.746701,19.6363636 Z" opacity=".8"/>
    <path fill="#2DE0C8" d="M62.746701,19.6363636 L62.746701,32.6421818 L29.0514433,0.844363636 L29.7463918,0.438545455 C30.7530928,-0.144 31.9936082,-0.144 32.9938144,0.438545455 L61.1229897,16.8021818 C62.1231959,17.3847273 62.746701,18.4647273 62.746701,19.6363636 Z" opacity=".373"/>
    <path fill="#FFF" fill-rule="nonzero" d="M41.3606962,40.944 C41.3606962,45.984 36.5041139,48.3696 31.6475316,48.3696 C26.7909494,48.3696 23.575557,46.488 22.2693038,44.64 L25.4512025,40.104 C26.9584177,41.952 29.6379114,42.624 31.1451266,42.624 C32.6523418,42.624 34.0590759,41.784 34.0590759,40.44 C34.0590759,39.096 32.9872785,38.424 31.4800633,38.424 L29.1355063,38.424 L29.1355063,33.384 L31.4800633,33.384 C32.6523418,33.384 33.4896835,32.88 33.4896835,31.704 C33.4896835,30.528 32.4848734,30.024 31.1451266,30.024 C29.8053797,30.024 27.7957595,30.36 25.6186709,31.872 L23.1066456,27 C24.7813291,25.824 27.1258861,24.48 31.714519,24.48 C36.3366456,24.48 40.5903418,26.832 40.5903418,30.864 C40.5903418,33.552 39.3510759,34.896 37.6763924,35.736 C39.853481,36.408 41.3606962,38.424 41.3606962,40.944 Z"/>
  </g>
</svg>
