<svg width="126" height="126" viewBox="0 0 126 126" fill="none" xmlns="http://www.w3.org/2000/svg">
<path fill-rule="evenodd" clip-rule="evenodd" d="M41.3438 55.125C27.2087 55.125 15.75 66.5837 15.75 80.7188C15.75 94.8538 27.2087 106.312 41.3438 106.312C55.4788 106.312 66.9375 94.8538 66.9375 80.7188C66.9375 66.5837 55.4788 55.125 41.3438 55.125ZM7.875 80.7188C7.875 62.2345 22.8595 47.25 41.3438 47.25C59.828 47.25 74.8125 62.2345 74.8125 80.7188C74.8125 99.203 59.828 114.188 41.3438 114.188C22.8595 114.188 7.875 99.203 7.875 80.7188Z" fill="#FCD214"/>
<path fill-rule="evenodd" clip-rule="evenodd" d="M63 19.6875C48.865 19.6875 37.4062 31.1462 37.4062 45.2812C37.4062 59.4163 48.865 70.875 63 70.875C77.135 70.875 88.5938 59.4163 88.5938 45.2812C88.5938 31.1462 77.135 19.6875 63 19.6875ZM29.5312 45.2812C29.5312 26.797 44.5157 11.8125 63 11.8125C81.4843 11.8125 96.4688 26.797 96.4688 45.2812C96.4688 63.7655 81.4843 78.75 63 78.75C44.5157 78.75 29.5312 63.7655 29.5312 45.2812Z" fill="#F58331"/>
<path fill-rule="evenodd" clip-rule="evenodd" d="M84.6562 55.125C70.5212 55.125 59.0625 66.5837 59.0625 80.7188C59.0625 94.8538 70.5212 106.312 84.6562 106.312C98.7913 106.312 110.25 94.8538 110.25 80.7188C110.25 66.5837 98.7913 55.125 84.6562 55.125ZM51.1875 80.7188C51.1875 62.2345 66.172 47.25 84.6562 47.25C103.141 47.25 118.125 62.2345 118.125 80.7188C118.125 99.203 103.141 114.188 84.6562 114.188C66.172 114.188 51.1875 99.203 51.1875 80.7188Z" fill="#1CC8B4"/>
</svg>
